<svg viewBox="0 0 64 64" xmlns="http://www.w3.org/2000/svg">
<path fill-rule="evenodd" clip-rule="evenodd" d="M60 55.9998V63.9998H4V55.9998H60ZM43.68 31.9998H52C58.6275 31.9998 64 37.3723 64 43.9998V47.9998C64 50.2085 62.2088 51.9998 60 51.9998H4C1.79125 51.9998 0 50.2085 0 47.9998V43.9998C0 37.3723 5.3725 31.9998 12 31.9998H20.32C22.3525 31.9998 24 30.3523 24 28.3198V28.311C24 24.3373 22.7525 20.5535 21.0863 16.9473C20.39 15.4423 20 13.7698 20 11.9998C20 4.66601 26.5775 -1.13024 34.1563 0.188509C39.005 1.03226 42.9675 5.02226 43.8138 9.86976C44.295 12.6235 43.8213 15.221 42.6825 17.4223C41.11 20.461 40 23.716 40 27.1373V28.3198C40 30.3523 41.6475 31.9998 43.68 31.9998ZM29.9683 30.9841C29.9683 29.862 30.8779 28.9524 32 28.9524C33.1221 28.9524 34.0317 29.862 34.0317 30.9841V37.0794H40.127C41.2491 37.0794 42.1587 37.989 42.1587 39.1111C42.1587 40.2332 41.2491 41.1429 40.127 41.1429H34.0317V47.2381C34.0317 48.3602 33.1221 49.2698 32 49.2698C30.8779 49.2698 29.9683 48.3602 29.9683 47.2381V41.1429H23.873C22.7509 41.1429 21.8413 40.2332 21.8413 39.1111C21.8413 37.989 22.7509 37.0794 23.873 37.0794H29.9683V30.9841Z" />
</svg>
