<svg viewBox="0 0 24 24" fill="none" xmlns="http://www.w3.org/2000/svg">
<path d="M20.2501 21H3.75006C3.55114 21 3.36038 21.079 3.21973 21.2197C3.07907 21.3603 3.00006 21.5511 3.00006 21.75V23.25C3.00006 23.4489 3.07907 23.6397 3.21973 23.7803C3.36038 23.921 3.55114 24 3.75006 24H20.2501C20.449 24 20.6397 23.921 20.7804 23.7803C20.921 23.6397 21.0001 23.4489 21.0001 23.25V21.75C21.0001 21.5511 20.921 21.3603 20.7804 21.2197C20.6397 21.079 20.449 21 20.2501 21ZM21.0001 7.5H13.5001V5.25H15.3751C15.4745 5.25 15.5699 5.21049 15.6402 5.14016C15.7105 5.06984 15.7501 4.97446 15.7501 4.875V2.625C15.7501 2.52554 15.7105 2.43016 15.6402 2.35984C15.5699 2.28951 15.4745 2.25 15.3751 2.25H13.5001V0.375C13.5001 0.275544 13.4605 0.180161 13.3902 0.109835C13.3199 0.0395088 13.2245 0 13.1251 0L10.8751 0C10.7756 0 10.6802 0.0395088 10.6099 0.109835C10.5396 0.180161 10.5001 0.275544 10.5001 0.375V2.25H8.62506C8.5256 2.25 8.43022 2.28951 8.35989 2.35984C8.28956 2.43016 8.25006 2.52554 8.25006 2.625V4.875C8.25006 4.97446 8.28956 5.06984 8.35989 5.14016C8.43022 5.21049 8.5256 5.25 8.62506 5.25H10.5001V7.5H3.00006C2.76489 7.50018 2.53306 7.55566 2.32328 7.66194C2.1135 7.76823 1.93165 7.92235 1.79241 8.11187C1.65317 8.30139 1.56044 8.52099 1.52171 8.75294C1.48297 8.9849 1.49932 9.22271 1.56943 9.44719L4.99506 19.5H19.0051L22.4307 9.44719C22.5008 9.22271 22.5171 8.9849 22.4784 8.75294C22.4397 8.52099 22.3469 8.30139 22.2077 8.11187C22.0685 7.92235 21.8866 7.76823 21.6768 7.66194C21.4671 7.55566 21.2352 7.50018 21.0001 7.5V7.5Z"/>
</svg>
