<svg viewBox="0 0 24 24" xmlns="http://www.w3.org/2000/svg">
<path d="M22.847 14.7987L20.8501 13.6456C21.0517 12.5581 21.0517 11.4424 20.8501 10.3549L22.847 9.2018C23.0767 9.07055 23.1798 8.79868 23.1048 8.54555C22.5845 6.8768 21.6985 5.36743 20.5407 4.11118C20.3626 3.91899 20.072 3.87211 19.847 4.00336L17.8501 5.15649C17.011 4.43461 16.0454 3.8768 15.0001 3.51118V1.20961C15.0001 0.947114 14.8173 0.717427 14.5595 0.661177C12.8392 0.276802 11.0767 0.295552 9.44072 0.661177C9.1829 0.717427 9.00009 0.947114 9.00009 1.20961V3.51586C7.95947 3.88618 6.99384 4.44399 6.15009 5.16118L4.1579 4.00805C3.92822 3.8768 3.64228 3.91899 3.46415 4.11586C2.30634 5.36743 1.4204 6.8768 0.900092 8.55024C0.820404 8.80336 0.928217 9.07524 1.1579 9.20649L3.15478 10.3596C2.95322 11.4471 2.95322 12.5627 3.15478 13.6502L1.1579 14.8034C0.928217 14.9346 0.825092 15.2065 0.900092 15.4596C1.4204 17.1284 2.30634 18.6377 3.46415 19.894C3.64228 20.0862 3.9329 20.1331 4.1579 20.0018L6.15478 18.8487C6.99384 19.5706 7.95947 20.1284 9.00478 20.494V22.8002C9.00478 23.0627 9.18759 23.2924 9.4454 23.3487C11.1657 23.733 12.9282 23.7143 14.5642 23.3487C14.822 23.2924 15.0048 23.0627 15.0048 22.8002V20.494C16.0454 20.1237 17.011 19.5659 17.8548 18.8487L19.8517 20.0018C20.0813 20.1331 20.3673 20.0909 20.5454 19.894C21.7032 18.6424 22.5892 17.1331 23.1095 15.4596C23.1798 15.2018 23.0767 14.9299 22.847 14.7987ZM12.0001 15.7502C9.9329 15.7502 8.25009 14.0674 8.25009 12.0002C8.25009 9.93305 9.9329 8.25024 12.0001 8.25024C14.0673 8.25024 15.7501 9.93305 15.7501 12.0002C15.7501 14.0674 14.0673 15.7502 12.0001 15.7502Z" />
</svg>
