<svg viewBox="0 0 48 48" fill="none" xmlns="http://www.w3.org/2000/svg">
<path d="M24.0001 48C36.6294 48 46.8674 37.2548 46.8674 24C46.8674 10.7452 36.6294 0 24.0001 0C11.3708 0 1.13281 10.7452 1.13281 24C1.13281 37.2548 11.3708 48 24.0001 48Z" fill="#D6A53A"/>
<path d="M24.0001 45.7346C36.6294 45.7346 46.8674 35.4965 46.8674 22.8673C46.8674 10.238 36.6294 0 24.0001 0C11.3708 0 1.13281 10.238 1.13281 22.8673C1.13281 35.4965 11.3708 45.7346 24.0001 45.7346Z" fill="#F7D54F"/>
<path d="M24.0003 41.737C34.4217 41.737 42.8698 33.2889 42.8698 22.8675C42.8698 12.4462 34.4217 3.99805 24.0003 3.99805C13.579 3.99805 5.13086 12.4462 5.13086 22.8675C5.13086 33.2889 13.579 41.737 24.0003 41.737Z" fill="#B38114"/>
<path d="M24.0003 41.7368C34.4217 41.7368 42.8698 33.5273 42.8698 23.4004C42.8698 13.2735 34.4217 5.06396 24.0003 5.06396C13.579 5.06396 5.13086 13.2735 5.13086 23.4004C5.13086 33.5273 13.579 41.7368 24.0003 41.7368Z" fill="#D6A53A"/>
<path d="M37.8698 19.953C38.3829 19.5582 40.4578 17.4173 41.0769 18.2027C41.646 18.9247 40.4133 21.1274 39.6977 21.7389C36.1231 24.7934 33.527 26.1407 19.3568 32.977C24.3501 31.298 34.4199 26.8989 37.9095 25.0219C39.1096 24.3763 40.4566 23.1437 41.0578 23.8323C41.5631 24.4113 40.8705 26.1514 39.8138 26.83C36.764 28.7886 32.9562 30.2678 19.5126 34.5609C22.6489 33.9901 30.2505 32.6978 34.524 31.55C35.5593 31.2719 36.9594 30.538 37.429 31.1472C38.1601 32.0955 36.1867 33.4203 35.5423 33.731C32.7319 35.0858 23.7917 35.7043 20.5012 35.9455C21.4903 36.1812 29.4763 35.8019 30.2589 36.3023C30.9179 36.7236 30.4594 37.6638 29.9734 37.9094C28.8432 38.4807 27.167 38.2899 25.9414 38.1816C24.2573 38.0327 22.5215 37.6292 20.85 37.2528C20.242 37.1158 19.4375 36.723 18.8135 36.8056C18.1138 36.8982 17.8694 37.6707 17.4272 38.1103C16.8962 38.6382 16.198 38.8768 15.4677 38.9146C15.8008 38.379 16.5258 37.7091 16.3958 37.0235C16.0312 35.1006 13.3685 34.2889 15.2248 32.0798C16.6735 30.3556 19.0316 29.1865 20.85 27.8907C25.1456 24.8297 32.0762 19.8723 36.2227 16.6013C37.4845 15.606 38.9303 14.0009 39.7277 14.7084C40.4587 15.357 39.0486 17.5177 37.8683 18.5242C34.1582 21.6882 28.8479 25.189 19.4537 30.9244C28.555 26.1905 34.8716 22.2598 37.8698 19.953Z" fill="#B38114"/>
<path d="M24.7296 25.2607C24.7296 25.3978 24.6396 25.5777 24.4597 25.8005C22.883 27.6771 20.7879 28.6154 18.1744 28.6154C15.5008 28.6154 13.3329 27.7028 11.6705 25.8777C10.051 24.1124 9.24121 21.8845 9.24121 19.1938C9.24121 16.5889 10.0338 14.3781 11.6191 12.5615C13.2729 10.6592 15.3766 9.70801 17.9301 9.70801C20.7065 9.70801 22.883 10.5606 24.4597 12.2658C24.6311 12.4544 24.7168 12.6215 24.7168 12.7671C24.7168 12.9299 24.4168 13.5341 23.817 14.5795C23.2258 15.6249 22.853 16.2119 22.6988 16.3404C22.6302 16.4089 22.5445 16.4432 22.4417 16.4432C22.3989 16.4432 22.1846 16.2718 21.799 15.929C21.3363 15.5177 20.8821 15.1964 20.4366 14.9651C19.7596 14.6223 19.057 14.4509 18.3286 14.4509C17.069 14.4509 16.0621 14.9222 15.308 15.8648C14.6139 16.7388 14.2669 17.8185 14.2669 19.1038C14.2669 20.4063 14.6139 21.4989 15.308 22.3815C16.0621 23.3412 17.069 23.8211 18.3286 23.8211C19.0741 23.8211 19.781 23.6583 20.4494 23.3326C20.8864 23.1184 21.332 22.8185 21.7862 22.4329C22.1632 22.1073 22.3731 21.9445 22.416 21.9445C22.5017 21.9445 22.5874 21.9916 22.6731 22.0859C22.8102 22.2401 23.1829 22.7757 23.7913 23.6925C24.4168 24.6437 24.7296 25.1664 24.7296 25.2606V25.2607Z" fill="#B38114"/>
<path d="M37.8698 19.1258C38.3829 18.731 40.4578 16.5901 41.0769 17.3756C41.646 18.0975 40.4133 20.3003 39.6977 20.9118C36.1231 23.9663 33.527 25.3136 19.3568 32.1498C24.3501 30.4708 34.4199 26.0718 37.9095 24.1947C39.1096 23.5492 40.4566 22.3165 41.0578 23.0052C41.5631 23.5841 40.8705 25.3242 39.8138 26.0028C36.764 27.9614 32.9562 29.4407 19.5126 33.7337C22.6489 33.163 30.2505 31.8707 34.524 30.7228C35.5593 30.4448 36.9594 29.7109 37.429 30.32C38.1601 31.2684 36.1867 32.5931 35.5423 32.9038C32.7319 34.2586 23.7917 34.8772 20.5012 35.1183C21.4903 35.354 29.4763 34.9748 30.2589 35.4751C30.9179 35.8965 30.4594 36.8366 29.9734 37.0823C28.8432 37.6536 27.167 37.4627 25.9414 37.3544C24.2573 37.2056 22.5215 36.802 20.85 36.4256C20.242 36.2886 19.4375 35.8958 18.8135 35.9784C18.1138 36.071 17.8694 36.8435 17.4272 37.2831C16.8962 37.811 16.198 38.0496 15.4677 38.0874C15.8008 37.5518 16.5258 36.882 16.3958 36.1963C16.0312 34.2735 13.3685 33.4618 15.2248 31.2526C16.6735 29.5285 19.0316 28.3593 20.85 27.0636C25.1456 24.0026 32.0762 19.0452 36.2227 15.7742C37.4845 14.7789 38.9303 13.1737 39.7277 13.8812C40.4587 14.5299 39.0486 16.6905 37.8683 17.697C34.1582 20.861 28.8479 24.3618 19.4537 30.0972C28.555 25.3634 34.8716 21.4326 37.8698 19.1258Z" fill="#F7D54F"/>
<path d="M24.6798 24.4194C24.6798 24.5565 24.5898 24.7364 24.4099 24.9592C22.8332 26.8358 20.7381 27.7741 18.1245 27.7741C15.451 27.7741 13.2831 26.8615 11.6207 25.0363C10.0012 23.2711 9.19141 21.0432 9.19141 18.3525C9.19141 15.7476 9.98403 13.5368 11.5693 11.7202C13.2231 9.81785 15.3268 8.8667 17.8803 8.8667C20.6567 8.8667 22.8332 9.71933 24.4099 11.4246C24.5813 11.6131 24.6669 11.7801 24.6669 11.9258C24.6669 12.0886 24.367 12.6928 23.7672 13.7382C23.176 14.7836 22.8032 15.3705 22.649 15.4991C22.5804 15.5676 22.4947 15.6019 22.3919 15.6019C22.349 15.6019 22.1348 15.4305 21.7492 15.0878C21.2865 14.6764 20.8323 14.3551 20.3868 14.1237C19.7098 13.781 19.0072 13.6096 18.2788 13.6096C17.0192 13.6096 16.0123 14.0809 15.2582 15.0235C14.5641 15.8975 14.2171 16.9772 14.2171 18.2626C14.2171 19.565 14.5641 20.6576 15.2582 21.5402C16.0123 22.4999 17.0192 22.9798 18.2788 22.9798C19.0243 22.9798 19.7312 22.817 20.3996 22.4913C20.8366 22.2771 21.2822 21.9772 21.7364 21.5916C22.1134 21.266 22.3233 21.1032 22.3662 21.1032C22.4519 21.1032 22.5376 21.1503 22.6233 21.2446C22.7604 21.3988 23.1331 21.9344 23.7415 22.8512C24.367 23.8024 24.6798 24.3251 24.6798 24.4194Z" fill="#F7D54F"/>
</svg>
