<svg viewBox="0 0 24 24" xmlns="http://www.w3.org/2000/svg">
<path d="M9.09042 19.006C8.9675 18.7593 8.75333 18.7343 8.66667 18.7343C8.58 18.7343 8.36583 18.7589 8.24917 18.9922L7.92958 19.6314C7.66417 20.1639 6.88667 20.1052 6.70125 19.5443L6 17.4414L5.55792 18.7697C5.3125 19.5056 4.62542 20.0002 3.84958 20.0002H3.33333C2.965 20.0002 2.66667 19.7018 2.66667 19.3335C2.66667 18.9652 2.965 18.6668 3.33333 18.6668H3.84958C4.05083 18.6668 4.22917 18.5385 4.29292 18.3477L5.05083 16.071C5.18833 15.6622 5.56917 15.3872 6 15.3872C6.43083 15.3872 6.81167 15.6618 6.94875 16.071L7.52708 17.806C8.35 17.1314 9.77958 17.4018 10.2771 18.396C10.3558 18.5535 10.5058 18.6439 10.6671 18.6568V15.2352L16.0004 9.93975V8.00016H10.3333C9.78333 8.00016 9.33333 7.55016 9.33333 7.00016V1.3335H1C0.445833 1.3335 0 1.77933 0 2.3335V21.6668C0 22.221 0.445833 22.6668 1 22.6668H15C15.5542 22.6668 16 22.221 16 21.6668V20.0002L10.6667 19.9956C9.995 19.9827 9.3925 19.6089 9.09042 19.006V19.006ZM16 6.41266C16 6.15016 15.8958 5.896 15.7083 5.7085L11.6292 1.62516C11.4417 1.43766 11.1875 1.3335 10.9208 1.3335H10.6667V6.66683H16V6.41266ZM12 15.7902V18.6668H14.8746L21.6112 11.8843L18.7829 9.056L12 15.7902V15.7902ZM23.6892 8.30558L22.3612 6.97766C21.9471 6.5635 21.275 6.5635 20.8608 6.97766L19.7254 8.11308L22.5537 10.9414L23.6892 9.806C24.1037 9.39183 24.1037 8.71975 23.6892 8.30558Z" />
</svg>
