<svg viewBox="0 0 36 36" xmlns="http://www.w3.org/2000/svg">
<path d="M17.9999 7.125C20.6549 7.125 23.0324 8.04 24.9074 9.825L30.0449 4.6875C26.9249 1.785 22.8524 0 17.9999 0C10.9649 0 4.88242 4.035 1.91992 9.915L7.90492 14.5575C9.32242 10.29 13.3049 7.125 17.9999 7.125Z" fill="#EA4335"/>
<path d="M35.235 18.4125C35.235 17.235 35.1225 16.095 34.95 15H18V21.765H27.705C27.27 23.985 26.01 25.875 24.12 27.15L29.9175 31.65C33.3 28.515 35.235 23.88 35.235 18.4125Z" fill="#4285F4"/>
<path d="M7.8975 21.4425C7.5375 20.355 7.3275 19.2 7.3275 18C7.3275 16.8 7.53 15.645 7.8975 14.5575L1.9125 9.91504C0.69 12.345 0 15.09 0 18C0 20.91 0.69 23.655 1.92 26.085L7.8975 21.4425Z" fill="#FBBC05"/>
<path d="M17.9996 36.0001C22.8596 36.0001 26.9471 34.4026 29.9171 31.6426L24.1196 27.1426C22.5071 28.2301 20.4296 28.8676 17.9996 28.8676C13.3046 28.8676 9.32211 25.7026 7.89711 21.4351L1.91211 26.0776C4.88211 31.9651 10.9646 36.0001 17.9996 36.0001Z" fill="#34A853"/>
</svg>
