<svg viewBox="0 0 24 24" xmlns="http://www.w3.org/2000/svg">
<path d="M11.682 7.51103L3.99989 13.8381V20.6669C3.99989 20.8437 4.07013 21.0132 4.19515 21.1383C4.32018 21.2633 4.48975 21.3335 4.66656 21.3335L9.33572 21.3214C9.51196 21.3206 9.68067 21.2499 9.80497 21.125C9.92928 21.0001 9.99906 20.831 9.99906 20.6548V16.6669C9.99906 16.4901 10.0693 16.3205 10.1943 16.1955C10.3193 16.0704 10.4889 16.0002 10.6657 16.0002H13.3324C13.5092 16.0002 13.6788 16.0704 13.8038 16.1955C13.9288 16.3205 13.9991 16.4901 13.9991 16.6669V20.6519C13.9988 20.7396 14.0158 20.8265 14.0492 20.9076C14.0826 20.9887 14.1316 21.0625 14.1936 21.1246C14.2555 21.1867 14.3291 21.236 14.4101 21.2697C14.4911 21.3033 14.578 21.3206 14.6657 21.3206L19.3332 21.3335C19.51 21.3335 19.6796 21.2633 19.8046 21.1383C19.9297 21.0132 19.9999 20.8437 19.9999 20.6669V13.8335L12.3195 7.51103C12.2292 7.43825 12.1167 7.39856 12.0007 7.39856C11.8847 7.39856 11.7723 7.43825 11.682 7.51103V7.51103ZM23.8166 11.8114L20.3332 8.9402V3.16895C20.3332 3.03634 20.2805 2.90916 20.1868 2.81539C20.093 2.72162 19.9658 2.66895 19.8332 2.66895H17.4999C17.3673 2.66895 17.2401 2.72162 17.1463 2.81539C17.0526 2.90916 16.9999 3.03634 16.9999 3.16895V6.19436L13.2695 3.1252C12.9115 2.8306 12.4623 2.66953 11.9986 2.66953C11.535 2.66953 11.0858 2.8306 10.7278 3.1252L0.180725 11.8114C0.130095 11.8533 0.0882067 11.9047 0.0574534 11.9627C0.0267 12.0208 0.00768456 12.0843 0.00149348 12.1497C-0.00469761 12.2151 0.00205702 12.2811 0.0213714 12.3439C0.0406858 12.4066 0.0721814 12.465 0.114059 12.5156L1.17656 13.8073C1.21832 13.8581 1.26969 13.9001 1.32772 13.931C1.38576 13.9619 1.44932 13.9811 1.51476 13.9874C1.58021 13.9937 1.64626 13.987 1.70913 13.9678C1.77199 13.9485 1.83045 13.9171 1.88114 13.8752L11.682 5.8027C11.7723 5.72991 11.8847 5.69023 12.0007 5.69023C12.1167 5.69023 12.2292 5.72991 12.3195 5.8027L22.1207 13.8752C22.1713 13.9171 22.2297 13.9486 22.2925 13.9679C22.3553 13.9872 22.4212 13.994 22.4866 13.9878C22.552 13.9816 22.6155 13.9626 22.6736 13.9318C22.7316 13.901 22.783 13.8592 22.8249 13.8085L23.8874 12.5169C23.9292 12.466 23.9606 12.4073 23.9797 12.3442C23.9988 12.2812 24.0052 12.215 23.9986 12.1494C23.992 12.0839 23.9726 12.0203 23.9413 11.9623C23.9101 11.9043 23.8677 11.853 23.8166 11.8114V11.8114Z" />
</svg>
