<svg viewBox="0 0 100 100" xmlns="http://www.w3.org/2000/svg">
<path d="M20.3125 43.75H4.6875C2.09863 43.75 0 45.8486 0 48.4375V95.3125C0 97.9014 2.09863 100 4.6875 100H20.3125C22.9014 100 25 97.9014 25 95.3125V48.4375C25 45.8486 22.9014 43.75 20.3125 43.75ZM12.5 92.1875C9.91114 92.1875 7.81251 90.0889 7.81251 87.5C7.81251 84.9111 9.91114 82.8125 12.5 82.8125C15.0889 82.8125 17.1875 84.9111 17.1875 87.5C17.1875 90.0889 15.0889 92.1875 12.5 92.1875ZM75.0001 15.9086C75.0001 24.193 69.9278 28.8398 68.5006 34.375H88.3684C94.8913 34.375 99.9694 39.7941 99.9999 45.7223C100.016 49.2258 98.526 52.9975 96.2032 55.3311L96.1817 55.3525C98.1028 59.9105 97.7905 66.2973 94.3637 70.8738C96.0592 75.9314 94.3503 82.1441 91.1641 85.4748C92.0036 88.9119 91.6024 91.8371 89.9633 94.192C85.977 99.9193 76.0969 100 67.742 100L67.1864 99.9998C57.7553 99.9965 50.0368 96.5627 43.8348 93.8035C40.7182 92.417 36.6432 90.7006 33.5514 90.6438C32.274 90.6203 31.25 89.5779 31.25 88.3004V46.5484C31.25 45.9234 31.5004 45.3236 31.9449 44.8842C39.6821 37.2389 43.009 29.1445 49.3506 22.7922C52.242 19.8953 53.2936 15.5195 54.3102 11.2879C55.1787 7.67441 56.9955 0 60.9375 0C65.625 0 75.0001 1.5625 75.0001 15.9086Z" />
</svg>
