<svg viewBox="0 0 64 64" xmlns="http://www.w3.org/2000/svg">
<path d="M26.8785 8.88074L15.7573 19.9996H2.99997C1.34249 19.9996 0 21.3421 0 22.9996V40.9998C0 42.6561 1.34249 43.9998 2.99997 43.9998H15.7573L26.8785 55.1187C28.7572 56.9974 31.9997 55.6774 31.9997 52.9974V11.002C31.9997 8.31948 28.7547 7.00447 26.8785 8.88074ZM57.7044 31.9997L63.4094 26.2947C64.1969 25.5071 64.1969 24.2296 63.4094 23.4421L60.5569 20.5896C59.7694 19.8021 58.4919 19.8021 57.7044 20.5896L51.9995 26.2947L46.2945 20.5896C45.5071 19.8021 44.2296 19.8021 43.4421 20.5896L40.5896 23.4421C39.8021 24.2296 39.8021 25.5071 40.5896 26.2947L46.2945 31.9997L40.5909 37.7035C39.8034 38.491 39.8034 39.7685 40.5909 40.556L43.4433 43.4086C44.2308 44.1961 45.5083 44.1961 46.2958 43.4086L51.9995 37.7048L57.7044 43.4098C58.4919 44.1973 59.7694 44.1973 60.5569 43.4098L63.4094 40.5573C64.1969 39.7698 64.1969 38.4923 63.4094 37.7048L57.7044 31.9997Z" />
</svg>
