<svg viewBox="0 0 100 100" xmlns="http://www.w3.org/2000/svg">
<path d="M36.352 66.9446C34.4673 68.8168 34.4673 71.8512 36.352 73.7234C38.2367 75.5956 41.2914 75.5956 43.1761 73.7234L73.8749 43.2285C77.6424 39.486 83.7517 39.486 87.5192 43.2285C91.2867 46.971 91.2867 53.0397 87.5192 56.7822L57.4122 86.6873C61.1759 90.4298 67.2812 90.4337 71.0488 86.6951L71.0566 86.6873L94.3472 63.5532C101.884 56.0663 101.884 43.9308 94.3472 36.4458C86.8103 28.9588 74.5917 28.9588 67.0586 36.4458L36.352 66.9446ZM84.1111 46.6121C82.2263 44.7398 79.1717 44.7398 77.2889 46.6121L46.5862 77.107C42.8226 80.8495 36.7172 80.8533 32.9497 77.1167L32.9399 77.107C31.0572 75.2367 28.0045 75.2347 26.1197 77.105C24.235 78.9753 24.2311 82.0116 26.1139 83.8838L26.1178 83.8877C33.6528 91.3708 45.8714 91.3708 53.4064 83.8877L84.1091 53.3889C85.9939 51.5167 85.9939 48.4823 84.1111 46.6121ZM32.9419 63.5552L63.6407 33.0603C65.5235 31.1881 65.5235 28.1537 63.6407 26.2815C61.7579 24.4112 58.7052 24.4112 56.8224 26.2815L26.1178 56.7764C22.3522 60.5189 16.2429 60.5208 12.4754 56.7783C8.70788 53.0378 8.70202 46.971 12.4676 43.2265L12.4734 43.2207L42.5843 13.3098C38.8188 9.56728 32.7114 9.56534 28.942 13.3059L28.9381 13.3098L5.65128 36.4458C-1.88376 43.9327 -1.88376 56.0682 5.65128 63.5532C13.1902 71.0402 25.4029 71.0402 32.9419 63.5552ZM15.8855 53.3889C17.7683 55.2592 20.821 55.2592 22.7038 53.3889L53.4084 22.8921C57.174 19.1496 63.2813 19.1476 67.0488 22.8882L67.0527 22.8921C68.9375 24.7643 71.9921 24.7643 73.8749 22.8921C75.7596 21.0198 75.7596 17.9855 73.8749 16.1152C66.3379 8.62826 54.1232 8.62826 46.5862 16.1152L15.8855 46.6121C14.0008 48.4823 14.0027 51.5167 15.8855 53.3889Z" />
</svg>
