<svg viewBox="0 0 24 24" xmlns="http://www.w3.org/2000/svg">
<path d="M22.005 13.8885L23.9747 5.22179C24.1169 4.59604 23.6413 4.00016 22.9996 4.00016H6.63367L6.25175 2.13308C6.15658 1.6677 5.74708 1.3335 5.27204 1.3335H1C0.447708 1.3335 0 1.7812 0 2.3335V3.00016C0 3.55245 0.447708 4.00016 1 4.00016H3.91179L6.83879 18.31C6.13854 18.7127 5.66667 19.4677 5.66667 20.3335C5.66667 21.6222 6.71133 22.6668 8 22.6668C9.28867 22.6668 10.3333 21.6222 10.3333 20.3335C10.3333 19.6804 10.0647 19.0904 9.63233 18.6668H18.3676C17.9353 19.0904 17.6667 19.6804 17.6667 20.3335C17.6667 21.6222 18.7113 22.6668 20 22.6668C21.2887 22.6668 22.3333 21.6222 22.3333 20.3335C22.3333 19.4097 21.7963 18.6113 21.0175 18.2333L21.2474 17.2218C21.3896 16.596 20.914 16.0002 20.2723 16.0002H9.08821L8.8155 14.6668H21.0299C21.4968 14.6668 21.9015 14.3437 22.005 13.8885Z" />
</svg>
