<svg viewBox="0 0 36 36" xmlns="http://www.w3.org/2000/svg">
<path d="M29.25 31.5H23.3438C22.8797 31.5 22.5 31.1203 22.5 30.6562V27.8438C22.5 27.3797 22.8797 27 23.3438 27H29.25C30.4945 27 31.5 25.9945 31.5 24.75V11.25C31.5 10.0055 30.4945 9 29.25 9H23.3438C22.8797 9 22.5 8.62031 22.5 8.15625V5.34375C22.5 4.87969 22.8797 4.5 23.3438 4.5H29.25C32.9766 4.5 36 7.52344 36 11.25V24.75C36 28.4766 32.9766 31.5 29.25 31.5ZM25.9453 17.3672L14.1328 5.55469C13.0781 4.5 11.25 5.23828 11.25 6.75V13.5H1.6875C0.752344 13.5 0 14.2523 0 15.1875V21.9375C0 22.8727 0.752344 23.625 1.6875 23.625H11.25V30.375C11.25 31.8867 13.0781 32.625 14.1328 31.5703L25.9453 19.7578C26.5992 19.0969 26.5992 18.0281 25.9453 17.3672Z" />
</svg>
