<svg viewBox="0 0 24 24" xmlns="http://www.w3.org/2000/svg">
<path d="M1.5 24.0002H22.5V21.0002H1.5V24.0002ZM19.5 12.0002H16.38C15.6178 12.0002 15 11.3824 15 10.6202V10.1768C15 8.89381 15.4162 7.67318 16.0059 6.53365C16.433 5.70818 16.6106 4.73412 16.4302 3.70147C16.1128 1.88365 14.6269 0.387402 12.8086 0.0709962C9.96656 -0.423535 7.5 1.75006 7.5 4.50022C7.5 5.16397 7.64625 5.79115 7.90734 6.35553C8.53219 7.70787 9 9.12678 9 10.6169V10.6202C9 11.3824 8.38219 12.0002 7.62 12.0002H4.5C2.01469 12.0002 0 14.0149 0 16.5002V18.0002C0 18.8285 0.671719 19.5002 1.5 19.5002H22.5C23.3283 19.5002 24 18.8285 24 18.0002V16.5002C24 14.0149 21.9853 12.0002 19.5 12.0002Z" />
</svg>
