<svg viewBox="0 0 37 37" xmlns="http://www.w3.org/2000/svg">
<path d="M35.1226 23.9498C35.2688 23.1567 35.2688 22.3467 35.1226 21.5535L36.574 20.7154C36.7427 20.6198 36.8159 20.4229 36.7596 20.2373C36.3827 19.0223 35.7358 17.9198 34.8919 17.0085C34.7625 16.8679 34.5544 16.8342 34.3856 16.9298L32.9342 17.7679C32.321 17.2448 31.6178 16.8398 30.8584 16.5698V14.8935C30.8584 14.7023 30.7234 14.5335 30.5377 14.4942C29.2832 14.2129 28.0062 14.2242 26.8136 14.4942C26.6279 14.5335 26.4929 14.7023 26.4929 14.8935V16.5698C25.7335 16.8398 25.0303 17.2448 24.4171 17.7679L22.9657 16.9298C22.8025 16.8342 22.5887 16.8679 22.4594 17.0085C21.6155 17.9198 20.9686 19.0223 20.5917 20.2373C20.5354 20.4229 20.6142 20.6198 20.7773 20.7154L22.2287 21.5535C22.0824 22.3467 22.0824 23.1567 22.2287 23.9498L20.7773 24.7879C20.6085 24.8835 20.5354 25.0804 20.5917 25.266C20.9686 26.481 21.6155 27.5779 22.4594 28.4948C22.5887 28.6354 22.7969 28.6692 22.9657 28.5735L24.4171 27.7354C25.0303 28.2585 25.7335 28.6635 26.4929 28.9335V30.6098C26.4929 30.801 26.6279 30.9698 26.8136 31.0092C28.0681 31.2904 29.3451 31.2792 30.5377 31.0092C30.7234 30.9698 30.8584 30.801 30.8584 30.6098V28.9335C31.6178 28.6635 32.321 28.2585 32.9342 27.7354L34.3856 28.5735C34.5488 28.6692 34.7625 28.6354 34.8919 28.4948C35.7358 27.5835 36.3827 26.481 36.7596 25.266C36.8159 25.0804 36.7371 24.8835 36.574 24.7879L35.1226 23.9498V23.9498ZM28.6813 25.4798C27.1736 25.4798 25.9529 24.2535 25.9529 22.7517C25.9529 21.2498 27.1792 20.0235 28.6813 20.0235C30.1833 20.0235 31.4097 21.2498 31.4097 22.7517C31.4097 24.2535 30.1889 25.4798 28.6813 25.4798ZM13.3797 17.3517C17.3569 17.3517 20.5804 14.1285 20.5804 10.1517C20.5804 6.17479 17.3569 2.95166 13.3797 2.95166C9.40236 2.95166 6.17889 6.17479 6.17889 10.1517C6.17889 14.1285 9.40236 17.3517 13.3797 17.3517ZM24.6983 30.0923C24.569 30.0248 24.4396 29.946 24.3158 29.8729L23.8714 30.1317C23.5338 30.3229 23.1513 30.4298 22.7688 30.4298C22.1556 30.4298 21.5649 30.171 21.143 29.721C20.1135 28.6073 19.3259 27.2517 18.8815 25.806C18.5721 24.8104 18.9884 23.7585 19.8885 23.2354L20.3329 22.9767C20.3273 22.8304 20.3273 22.6842 20.3329 22.5379L19.8885 22.2792C18.9884 21.7617 18.5721 20.7042 18.8815 19.7085C18.9321 19.5454 19.0052 19.3823 19.0615 19.2192C18.8477 19.2023 18.6396 19.1517 18.4202 19.1517H17.4807C16.2318 19.7254 14.8423 20.0517 13.3797 20.0517C11.917 20.0517 10.5331 19.7254 9.27859 19.1517H8.33912C4.16493 19.1517 0.77832 22.5379 0.77832 26.7117V29.0517C0.77832 30.5423 1.98782 31.7517 3.47861 31.7517H23.2807C23.8489 31.7517 24.3777 31.5717 24.8109 31.2735C24.7434 31.0598 24.6983 30.8404 24.6983 30.6098V30.0923Z" />
</svg>
