<svg viewBox="0 0 36 36" xmlns="http://www.w3.org/2000/svg">
<path d="M35.1 15.3001H31.5V11.7001C31.5 11.2051 31.095 10.8001 30.6 10.8001H28.8C28.305 10.8001 27.9 11.2051 27.9 11.7001V15.3001H24.3C23.805 15.3001 23.4 15.7051 23.4 16.2001V18.0001C23.4 18.4951 23.805 18.9001 24.3 18.9001H27.9V22.5001C27.9 22.9951 28.305 23.4001 28.8 23.4001H30.6C31.095 23.4001 31.5 22.9951 31.5 22.5001V18.9001H35.1C35.595 18.9001 36 18.4951 36 18.0001V16.2001C36 15.7051 35.595 15.3001 35.1 15.3001ZM12.6 18.0001C16.5769 18.0001 19.8 14.777 19.8 10.8001C19.8 6.82322 16.5769 3.6001 12.6 3.6001C8.62313 3.6001 5.4 6.82322 5.4 10.8001C5.4 14.777 8.62313 18.0001 12.6 18.0001ZM17.64 19.8001H16.7006C15.4519 20.3738 14.0625 20.7001 12.6 20.7001C11.1375 20.7001 9.75375 20.3738 8.49938 19.8001H7.56C3.38625 19.8001 0 23.1863 0 27.3601V29.7001C0 31.1907 1.20938 32.4001 2.7 32.4001H22.5C23.9906 32.4001 25.2 31.1907 25.2 29.7001V27.3601C25.2 23.1863 21.8137 19.8001 17.64 19.8001Z" />
</svg>
