<svg viewBox="0 0 64 64" xmlns="http://www.w3.org/2000/svg">
<path d="M23.8922 11.4502L14.0067 21.3335H2.66667C1.19333 21.3335 0 22.5269 0 24.0002V40.0002C0 41.4724 1.19333 42.6669 2.66667 42.6669H6.27611L28.4444 27.3783V13.3357C28.4444 10.9513 25.56 9.78241 23.8922 11.4502Z" />
<path d="M23.8922 52.5502L18.0412 46.7005L28.4444 39.5259V50.6646C28.4444 53.0469 25.5622 54.2202 23.8922 52.5502Z" />
<path d="M35.0089 35.868C35.9403 35.3561 36.6427 34.5509 37.0205 33.6114L42.4317 29.8795C42.587 30.5676 42.6678 31.2777 42.6678 31.9991C42.6678 35.5413 40.7189 38.8135 37.5822 40.5413C36.2978 41.2469 34.6733 40.7869 33.9589 39.4913C33.2489 38.2013 33.7189 36.5802 35.0089 35.868Z" />
<path d="M48 32.0002C48 30.157 47.67 28.3659 47.0479 26.6959L51.5472 23.593C52.7097 26.1927 53.3333 29.0467 53.3333 32.0002C53.3333 39.0602 49.7711 45.5491 43.8033 49.3602C42.47 50.2135 40.8467 49.6824 40.1233 48.5313C39.3356 47.2769 39.7033 45.618 40.9467 44.8246C45.3633 42.0035 48 37.2102 48 32.0002Z" />
<path d="M58.6233 32.0013C58.6233 27.9585 57.6907 24.0542 55.9648 20.5463L60.4322 17.4653C62.7444 21.879 64 26.8463 64 32.0002C64 42.5924 58.6967 52.398 49.8167 58.2269C48.53 59.0724 46.8756 58.6446 46.0933 57.4546C45.2778 56.2146 45.6244 54.5457 46.8656 53.7324C54.2289 48.9002 58.6233 40.7769 58.6233 32.0013Z" />
<path d="M49.8932 12.5861L54.4293 9.45773C53.0255 8.10392 51.4842 6.86918 49.8167 5.77463C48.5756 4.96019 46.9078 5.30352 46.0933 6.54686C45.2778 7.78797 45.6244 9.45575 46.8656 10.2702C47.9394 10.9749 48.9501 11.7496 49.8932 12.5861Z" />
<path d="M40.6529 18.9587L45.3437 15.7237C44.8499 15.3422 44.3362 14.9805 43.8033 14.6402C42.56 13.8469 40.9111 14.2157 40.1233 15.4691C39.4015 16.6175 39.6498 18.1063 40.6529 18.9587Z" />
<path d="M1.86453 49.3536C0.955238 49.9807 0.726474 51.2262 1.35357 52.1355C1.98067 53.0448 3.22617 53.2735 4.13547 52.6464L62.1355 12.6464C63.0448 12.0193 63.2735 10.7738 62.6464 9.86453C62.0193 8.95524 60.7738 8.72647 59.8645 9.35357L1.86453 49.3536Z" />
</svg>
