<svg viewBox="0 0 64 64" xmlns="http://www.w3.org/2000/svg">
<path d="M23.8922 11.4502L14.0067 21.3335H2.66667C1.19333 21.3335 0 22.5269 0 24.0002V40.0002C0 41.4724 1.19333 42.6669 2.66667 42.6669H14.0067L23.8922 52.5502C25.5622 54.2202 28.4444 53.0469 28.4444 50.6646V13.3357C28.4444 10.9513 25.56 9.78241 23.8922 11.4502ZM49.8167 5.77463C48.5756 4.96019 46.9078 5.30352 46.0933 6.54686C45.2778 7.78797 45.6244 9.45575 46.8656 10.2702C54.2289 15.1024 58.6233 23.2257 58.6233 32.0013C58.6233 40.7769 54.2289 48.9002 46.8656 53.7324C45.6244 54.5457 45.2778 56.2146 46.0933 57.4546C46.8756 58.6446 48.53 59.0724 49.8167 58.2269C58.6967 52.398 64 42.5924 64 32.0002C64 21.408 58.6967 11.6035 49.8167 5.77463ZM53.3333 32.0002C53.3333 24.9413 49.7711 18.4513 43.8033 14.6402C42.56 13.8469 40.9111 14.2157 40.1233 15.4691C39.3356 16.7224 39.7033 18.3813 40.9467 19.1757C45.3633 21.9969 48 26.7902 48 32.0002C48 37.2102 45.3633 42.0035 40.9467 44.8246C39.7033 45.618 39.3356 47.2769 40.1233 48.5313C40.8467 49.6824 42.47 50.2135 43.8033 49.3602C49.7711 45.5491 53.3333 39.0602 53.3333 32.0002ZM37.5811 23.4591C36.2944 22.7557 34.6711 23.2191 33.9578 24.5091C33.2478 25.7991 33.7178 27.4202 35.0078 28.1324C36.4422 28.9202 37.3333 30.4035 37.3333 32.0002C37.3333 33.598 36.4422 35.0802 35.0089 35.868C33.7189 36.5802 33.2489 38.2013 33.9589 39.4913C34.6733 40.7869 36.2978 41.2469 37.5822 40.5413C40.7189 38.8135 42.6678 35.5413 42.6678 31.9991C42.6678 28.4569 40.7189 25.1857 37.5811 23.4591Z" />
</svg>
