<svg viewBox="0 0 27 25" xmlns="http://www.w3.org/2000/svg">
<path d="M23.2965 5.41929C23.8097 5.02446 25.8846 2.88356 26.5037 3.66902C27.0727 4.39099 25.84 6.59375 25.1245 7.20521C21.5499 10.2597 18.9538 11.607 4.78353 18.4433C9.7769 16.7643 19.8467 12.3653 23.3362 10.4882C24.5363 9.84264 25.8834 8.60998 26.4845 9.29864C26.9899 9.87756 26.2973 11.6176 25.2406 12.2962C22.1908 14.2549 18.3829 15.7341 4.93934 20.0272C8.07567 19.4565 15.6772 18.1641 19.9508 17.0163C20.9861 16.7382 22.3862 16.0043 22.8558 16.6135C23.5869 17.5619 21.6135 18.8866 20.969 19.1973C18.1586 20.5521 9.21849 21.1706 5.92792 21.4118C6.9171 21.6474 14.9031 21.2682 15.6856 21.7686C16.3447 22.1899 15.8861 23.1301 15.4002 23.3757C14.27 23.947 12.5938 23.7562 11.3682 23.6479C9.68402 23.499 7.94823 23.0955 6.2768 22.719C5.66875 22.5821 4.86429 22.1893 4.24024 22.2719C3.54053 22.3645 3.29613 23.137 2.85393 23.5766C2.32295 24.1045 1.62473 24.3431 0.894482 24.3809C1.22761 23.8453 1.95257 23.1754 1.82257 22.4898C1.45798 20.5669 -1.20471 19.7552 0.651547 17.5461C2.10031 15.8219 4.4584 14.6528 6.2768 13.357C10.5724 10.296 17.5029 5.33863 21.6495 2.06764C22.9112 1.07234 24.3571 -0.532828 25.1545 0.174701C25.8855 0.823339 24.4754 2.98394 23.2951 3.99049C19.5849 7.15445 14.2746 10.6553 4.88045 16.3907C13.9818 11.6569 20.2984 7.72608 23.2965 5.41929Z" />
</svg>
