<svg viewBox="0 0 1920 483" xmlns="http://www.w3.org/2000/svg">
<path fill-rule="evenodd" clip-rule="evenodd" d="M1934 386H2197.75C2225.5 386 2248 408.498 2248 436.25C2248 464.002 2225.5 486.5 2197.75 486.5H1801.62C1781.43 486.5 1766 504.313 1766 524.5C1766 683.282 1637.28 812 1478.5 812C1319.72 812 1191 683.282 1191 524.5C1191 504.313 1175.57 486.5 1155.38 486.5H-89.75C-117.502 486.5 -140 464.002 -140 436.25C-140 408.498 -117.502 386 -89.75 386H-18V3L101.688 386H1082.92C1163.49 386 1234.94 339.678 1303.33 295.342L1303.36 295.326C1310.14 290.931 1316.89 286.555 1323.61 282.246C1368.32 253.606 1421.47 237 1478.5 237C1535.53 237 1588.68 253.606 1633.39 282.246C1640.12 286.56 1646.88 290.942 1653.67 295.342C1704.65 328.39 1757.33 362.542 1814.22 377.79L1934 2V386Z" class="live_frame_color_base" />
<path d="M1934 386H1930V390H1934V386ZM-18 386V390H-14V386H-18ZM-18 3L-14.1821 1.8069L-22 3H-18ZM101.688 386L97.8696 387.193L98.7467 390H101.688V386ZM1303.33 295.342L1305.51 298.699L1305.51 298.698L1303.33 295.342ZM1303.36 295.326L1301.18 291.97L1301.18 291.97L1303.36 295.326ZM1323.61 282.246L1321.46 278.878L1321.46 278.878L1323.61 282.246ZM1633.39 282.246L1635.54 278.878L1635.54 278.878L1633.39 282.246ZM1653.67 295.342L1651.49 298.699L1651.49 298.699L1653.67 295.342ZM1814.22 377.79L1813.18 381.653L1816.87 382.641L1818.03 379.004L1814.22 377.79ZM1934 2H1938L1930.19 0.785219L1934 2ZM2197.75 382H1934V390H2197.75V382ZM2252 436.25C2252 406.289 2227.71 382 2197.75 382V390C2223.29 390 2244 410.707 2244 436.25H2252ZM2197.75 490.5C2227.71 490.5 2252 466.211 2252 436.25H2244C2244 461.793 2223.29 482.5 2197.75 482.5V490.5ZM1801.62 490.5H2197.75V482.5H1801.62V490.5ZM1770 524.5C1770 506.179 1783.97 490.5 1801.62 490.5V482.5C1778.89 482.5 1762 502.447 1762 524.5H1770ZM1478.5 816C1639.49 816 1770 685.491 1770 524.5H1762C1762 681.073 1635.07 808 1478.5 808V816ZM1187 524.5C1187 685.491 1317.51 816 1478.5 816V808C1321.93 808 1195 681.073 1195 524.5H1187ZM1155.38 490.5C1173.03 490.5 1187 506.179 1187 524.5H1195C1195 502.447 1178.1 482.5 1155.38 482.5V490.5ZM-89.75 490.5H1155.38V482.5H-89.75V490.5ZM-144 436.25C-144 466.211 -119.711 490.5 -89.75 490.5V482.5C-115.293 482.5 -136 461.793 -136 436.25H-144ZM-89.75 382C-119.711 382 -144 406.289 -144 436.25H-136C-136 410.707 -115.293 390 -89.75 390V382ZM-18 382H-89.75V390H-18V382ZM-22 3V386H-14V3H-22ZM105.505 384.807L-14.1821 1.8069L-21.8179 4.1931L97.8696 387.193L105.505 384.807ZM1082.92 382H101.688V390H1082.92V382ZM1301.16 291.986C1232.53 336.474 1162.09 382 1082.92 382V390C1164.88 390 1237.35 342.882 1305.51 298.699L1301.16 291.986ZM1301.18 291.97L1301.16 291.986L1305.51 298.698L1305.53 298.682L1301.18 291.97ZM1321.46 278.878C1314.72 283.194 1307.96 287.575 1301.18 291.97L1305.53 298.682C1312.32 294.286 1319.06 289.916 1325.77 285.614L1321.46 278.878ZM1478.5 233C1420.68 233 1366.78 249.837 1321.46 278.878L1325.77 285.614C1369.85 257.374 1422.26 241 1478.5 241V233ZM1635.54 278.878C1590.22 249.837 1536.32 233 1478.5 233V241C1534.74 241 1587.15 257.374 1631.23 285.614L1635.54 278.878ZM1655.84 291.986C1649.06 287.586 1642.29 283.199 1635.54 278.878L1631.23 285.614C1637.95 289.922 1644.7 294.297 1651.49 298.699L1655.84 291.986ZM1815.25 373.926C1759.08 358.871 1706.94 325.108 1655.84 291.986L1651.49 298.699C1702.35 331.672 1755.57 366.212 1813.18 381.653L1815.25 373.926ZM1818.03 379.004L1937.81 3.21478L1930.19 0.785219L1810.41 376.575L1818.03 379.004ZM1930 2V386H1938V2H1930Z" class="live_frame_color_border" />
</svg>
