<svg width="48" height="48" viewBox="0 0 48 48" fill="none" xmlns="http://www.w3.org/2000/svg">
<path d="M40.5798 0.0131836H7.42014C3.32939 0.0131836 0.0131836 3.32939 0.0131836 7.42014V40.5798C0.0131836 44.6705 3.32939 47.9867 7.42014 47.9867H40.5798C44.6705 47.9867 47.9867 44.6705 47.9867 40.5798V7.42014C47.9867 3.32939 44.6705 0.0131836 40.5798 0.0131836Z" fill="#FF5500"/>
<path d="M46.8725 14.9935L39.1303 17.0315L41.2364 9.30758L46.8725 14.9935ZM30.7744 42.5577L23.9078 30.0956C28.0684 30.0953 31.626 27.6707 33.167 24.0441H39.3853C38.3814 27.9429 35.935 31.2788 32.6524 33.4208L35.8995 39.3157C36.1316 39.735 36.5753 40.0114 37.0886 40.0113L44.0012 40.0111C44.0012 42.2101 42.2242 44.0133 40.025 44.0133C37.8259 44.0133 33.2739 44.0135 33.2739 44.0135C32.1969 44.0136 31.2633 43.4365 30.7744 42.5576V42.5577ZM8.53136 42.4643L8.53213 24.0337H14.7826V44.0171L10.0893 44.0173C9.21592 44.0175 8.53135 43.3376 8.53136 42.4643V42.4643ZM23.9214 4.11035C17.3592 4.11659 11.473 8.14836 9.0961 14.265H38.7769C36.3981 8.14321 30.5043 4.11035 23.9365 4.11035H23.9214ZM39.9873 22.1918C42.8554 22.1918 45.3926 20.3329 46.2571 17.5981C1.74976 17.5981 46.2571 17.5981 1.74976 17.5981C2.60876 20.3414 5.15017 22.2087 8.02479 22.2087L39.9873 22.1918Z" fill="#FDFDFD"/>
</svg>
