<svg viewBox="0 0 225 48" fill="none" xmlns="http://www.w3.org/2000/svg">
<g clip-path="url(#clip0_367_2521)">
<path d="M220.139 8.39789L219.243 10.9834H212.382L213.278 8.39789H220.139ZM204.248 7.40032L200.226 10.3421L202.873 14.3222H198.74L197.427 12.3882L194.76 14.3222H191.573L196.348 10.8002L194.037 7.40032H198.282L199.157 8.71344L200.929 7.40032H204.248ZM193.029 3.22682C193.029 3.90544 192.764 4.48226 192.235 4.95729C191.712 5.43233 191.081 5.66985 190.341 5.66985C189.588 5.66985 188.947 5.43233 188.417 4.95729C187.895 4.48226 187.633 3.90544 187.633 3.22682C187.633 2.55499 187.895 1.98157 188.417 1.50653C188.947 1.0315 189.588 0.793983 190.341 0.793983C191.081 0.793983 191.712 1.0315 192.235 1.50653C192.764 1.98157 193.029 2.55499 193.029 3.22682V3.22682ZM193.762 12.6935C193.585 13.2907 193.219 13.7318 192.662 14.0168C192.262 14.2204 191.828 14.3222 191.359 14.3222H187.338C186.368 14.3222 185.882 13.915 185.882 13.1007C185.882 12.87 185.93 12.6223 186.025 12.3576L187.796 7.40032H191.492L189.608 12.6935H193.762ZM185.994 12.6935C185.994 13.1686 185.733 13.5689 185.21 13.8947C184.749 14.1797 184.267 14.3222 183.765 14.3222H179.866C178.834 14.3222 178.318 13.8947 178.318 13.0396C178.318 12.8225 178.362 12.5883 178.451 12.3373L179.601 9.029H177.433L176.303 11.9504C176.113 12.4458 175.702 12.6935 175.071 12.6935H173.992L175.325 9.029C174.905 8.93399 174.562 8.72362 174.297 8.39789C174.039 8.06536 173.91 7.68533 173.91 7.25781C173.91 6.4774 174.273 5.87343 175 5.4459C175.604 5.09302 176.323 4.91658 177.158 4.91658H178.807L177.952 7.40032H183.582L181.729 12.6935H185.994ZM175.743 3.39987C175.743 5.40857 174.355 7.13226 171.579 8.57092C169.726 9.54135 167.52 10.2776 164.962 10.7798L163.72 14.3222H160.004L163.72 3.87829H167.405L165.654 8.77452C166.971 8.47593 168.138 8.01108 169.156 7.37996C170.574 6.49097 171.311 5.45608 171.365 4.27528C171.399 3.51524 171.145 3.01646 170.602 2.77894C170.276 2.63642 169.689 2.56517 168.84 2.56517H158.436L160.024 0H170.51C172.044 0 173.215 0.190015 174.022 0.570046C175.169 1.10615 175.743 2.04943 175.743 3.39987V3.39987ZM157.428 12.6935C157.089 13.7793 156.258 14.3222 154.934 14.3222H151.055C149.936 14.3222 149.386 13.9693 149.406 13.2636C148.66 14.139 147.659 14.5767 146.403 14.5767C145.582 14.5767 144.917 14.346 144.408 13.8845C143.878 13.4095 143.614 12.7648 143.614 11.9504C143.614 10.4778 144.211 9.32419 145.405 8.4895C146.457 7.76338 147.75 7.40032 149.284 7.40032H151.402L153.305 2.02566H157.011L153.224 12.6935H157.428ZM150.842 9.029H148.256L147.482 11.2175C147.414 11.4211 147.38 11.6043 147.38 11.7672C147.38 12.2219 147.669 12.5103 148.246 12.6325C148.449 12.6732 148.884 12.6935 149.549 12.6935L150.842 9.029ZM143.919 12.6935C143.743 13.2907 143.352 13.7318 142.748 14.0168C142.321 14.2204 141.863 14.3222 141.374 14.3222H137.312C136.382 14.3222 135.917 14.0168 135.917 13.4061C135.917 13.2025 135.965 12.965 136.06 12.6935L136.833 10.505L133.331 13.4671C132.51 14.0372 131.835 14.3222 131.306 14.3222H129.432L131.865 7.40032H135.541L134.39 10.6577L137.495 8.11287C138.337 7.42746 139.25 7.09833 140.234 7.12548C140.899 7.1526 141.231 7.50548 141.231 8.18412C141.231 8.43521 141.177 8.71683 141.068 9.029L139.755 12.6935H143.919ZM129.972 12.6935C129.646 13.7793 128.815 14.3222 127.478 14.3222H123.619C122.52 14.3222 121.97 13.9693 121.97 13.2636C121.23 14.105 120.321 14.5258 119.242 14.5258C118.448 14.5258 117.803 14.2815 117.308 13.7929C116.812 13.3043 116.564 12.6664 116.564 11.8792C116.564 10.4609 117.107 9.34116 118.193 8.52004C119.177 7.77356 120.396 7.40032 121.848 7.40032H127.661L125.747 12.6935H129.972ZM123.406 9.029H121.156L120.443 11.4008C120.402 11.5501 120.382 11.6858 120.382 11.8079C120.382 12.3983 120.959 12.6935 122.113 12.6935L123.406 9.029ZM116.809 12.6935C116.809 13.1686 116.547 13.5689 116.025 13.8947C115.563 14.1797 115.082 14.3222 114.579 14.3222H110.68C109.649 14.3222 109.133 13.8947 109.133 13.0396C109.133 12.8225 109.177 12.5883 109.265 12.3373L110.416 9.029H108.247L107.117 11.9504C106.927 12.4458 106.516 12.6935 105.885 12.6935H104.806L106.14 9.029C105.719 8.93399 105.376 8.72362 105.112 8.39789C104.854 8.06536 104.725 7.68533 104.725 7.25781C104.725 6.4774 105.088 5.87343 105.814 5.4459C106.418 5.09302 107.137 4.91658 107.972 4.91658H109.621L108.766 7.40032H114.396L112.543 12.6935H116.809ZM104.094 2.46339C104.094 3.16914 103.812 3.75615 103.249 4.22439C102.719 4.67228 102.095 4.89622 101.375 4.89622C100.663 4.89622 100.038 4.67228 99.5022 4.22439C98.9457 3.75615 98.6675 3.16914 98.6675 2.46339C98.6675 2.24622 98.7014 2.0087 98.7693 1.75082H98.5453C96.9096 1.75082 95.4437 2.49052 94.1474 3.96991C92.8918 5.395 92.264 6.93546 92.264 8.59129C92.264 9.98245 92.7832 11.0377 93.8216 11.757C94.7175 12.3814 95.895 12.6935 97.3542 12.6935L99.2477 7.40032H103.045C102.488 9.00864 101.647 11.4143 100.52 14.6174C99.9841 16.1307 98.7014 16.8874 96.6721 16.8874C96.4346 16.8874 96.1631 16.8806 95.8577 16.8671L96.7943 14.3222C94.4324 14.3222 92.5084 13.9795 91.022 13.2941C88.9995 12.3576 87.9883 10.8511 87.9883 8.77455C87.9883 7.6209 88.3446 6.44689 89.0572 5.25253C90.0549 3.57635 91.4937 2.26662 93.3737 1.32334C95.1451 0.441132 97.0556 2.88355e-05 99.1052 2.88355e-05H101.375C102.081 2.88355e-05 102.702 0.234156 103.238 0.702407C103.809 1.18422 104.094 1.77122 104.094 2.46342V2.46339ZM76.5558 8.39789L75.6599 10.9834H68.7984L69.6942 8.39789H76.5558ZM224.69 17.3561L216.491 40.8852C216.092 42.0194 215.402 42.9152 214.422 43.5726C213.443 44.2299 212.353 44.5586 211.155 44.5586H196.189C196.498 43.3986 197.098 42.4899 197.987 41.8325C198.876 41.1623 199.927 40.8272 201.139 40.8272H209.492L213.572 29.3623L207.752 35.5298C206.553 36.7929 204.954 37.4245 202.956 37.4245C201.796 37.4245 200.817 37.1667 200.017 36.6511C199.102 36.0582 198.644 35.2075 198.644 34.0991C198.644 33.5706 198.735 33.0422 198.915 32.5137L202.995 21.0875H199.515C199.566 21.4484 199.592 21.7513 199.592 21.9962C199.592 23.2722 199.089 24.3613 198.084 25.2636C197.091 26.1658 195.886 26.6169 194.468 26.6169C193.05 26.6169 191.838 26.1658 190.833 25.2636C189.827 24.3613 189.325 23.2722 189.325 21.9962C189.325 20.6557 189.853 19.5344 190.91 18.6321C191.916 17.7814 193.089 17.3561 194.429 17.3561H206.997C207.887 17.3561 208.609 17.6203 209.163 18.1488C209.717 18.6643 209.995 19.3668 209.995 20.2562C209.995 20.7588 209.904 21.2679 209.724 21.7835L205.605 33.3451L216.975 18.7868C217.271 18.4001 217.748 18.065 218.406 17.7814C219.063 17.4979 219.643 17.3561 220.146 17.3561H224.69ZM190.175 21.9962C190.175 23.2722 189.673 24.3613 188.667 25.2636C187.675 26.1658 186.463 26.6169 185.032 26.6169C183.627 26.6169 182.422 26.1658 181.416 25.2636C180.424 24.3613 179.927 23.2722 179.927 21.9962C179.927 21.4033 180.018 20.8877 180.198 20.4495H177.917C177.182 20.4495 176.557 20.7588 176.041 21.3775C175.538 21.9833 175.287 22.66 175.287 23.4075C175.287 24.0133 175.493 24.8833 175.906 26.0176C176.318 27.1389 176.524 28.0025 176.524 28.6083C176.524 29.3301 175.777 30.0519 174.281 30.7737C172.129 31.8048 170.737 32.5846 170.105 33.113C168.597 34.3762 167.843 36.0389 167.843 38.1011C167.843 39.6478 168.719 40.6532 170.472 41.1172C171.336 41.3492 172.838 41.4652 174.978 41.4652H189.073C188.906 42.4577 188.319 43.2439 187.314 43.8239C186.437 44.3137 185.451 44.5586 184.355 44.5586H168.481C166.109 44.5586 164.104 44.1526 162.467 43.3406C160.353 42.2837 159.296 40.6983 159.296 38.5845C159.296 36.2902 160.444 34.1957 162.738 32.301C164.62 30.7543 166.837 29.6265 169.39 28.9176C168.655 27.3065 168.287 25.8436 168.287 24.5289C168.287 22.0155 169.615 20.1208 172.271 18.8448C174.32 17.8523 176.756 17.3561 179.579 17.3561H185.477C186.779 17.3561 187.887 17.8201 188.803 18.7481C189.718 19.6633 190.175 20.7459 190.175 21.9962V21.9962ZM144.81 17.344L139.786 31.4117H146.438L151.388 17.3561H158.368L153.38 31.4117H168.017C167.656 33.4739 166.231 34.5051 163.743 34.5051H152.297L148.739 44.5586H141.778L145.375 34.5051H138.839C135.178 43.4888 129.41 47.9871 121.534 48C119.407 48 117.66 47.5811 116.294 46.7433C114.644 45.738 113.819 44.2299 113.819 42.2192C113.819 40.6467 114.347 39.0614 115.404 37.4631C118.072 33.4288 122.977 31.4117 130.119 31.4117H132.942L137.888 17.3439L144.81 17.344ZM131.84 34.5051H131.279C128.739 34.5051 126.458 35.156 124.434 36.4578C122.101 37.9529 120.934 39.8992 120.934 42.2965C120.934 43.9592 121.675 44.7906 123.158 44.7906C125.014 44.7906 126.851 43.4888 128.668 40.8852C130.022 38.9389 131.079 36.8122 131.84 34.5051ZM100.361 17.3561C103.97 17.3561 106.903 18.0908 109.159 19.5601C111.814 21.3002 113.142 23.878 113.142 27.2936C113.142 32.0626 111.266 36.2129 107.515 39.7445C103.88 43.1601 99.7938 44.8679 95.2563 44.8679C91.9177 44.8679 89.2816 43.9657 87.348 42.1612C85.4144 40.3567 84.4476 37.882 84.4476 34.7371C84.4476 33.1131 84.8279 31.373 85.5884 29.517C86.3103 27.7512 87.2642 26.1529 88.4501 24.7222H96.9578C95.5012 26.0111 94.296 27.661 93.3421 29.6717C92.3753 31.7339 91.8919 33.7124 91.8919 35.6071C91.8919 37.1667 92.2142 38.4878 92.8587 39.5705C93.6321 40.8594 94.7471 41.5039 96.2038 41.5039C98.6272 41.5039 100.819 39.9378 102.778 36.8058C104.518 33.996 105.388 31.3021 105.388 28.7243C105.388 26.6749 104.795 25.0831 103.609 23.9489C102.423 22.8018 100.786 22.2282 98.6981 22.2282H80.2205L73.7163 40.8852C73.3167 42.0194 72.6271 42.9152 71.6474 43.5726C70.6677 44.2299 69.5785 44.5586 68.3796 44.5586H53.4138C53.7232 43.3986 54.3226 42.4899 55.212 41.8325C56.1015 41.1623 57.152 40.8272 58.3637 40.8272H66.7168L70.7966 29.3623L64.9766 35.5298C63.7777 36.7929 62.1793 37.4245 60.1813 37.4245C59.0211 37.4245 58.0415 37.1667 57.2423 36.6511C56.327 36.0582 55.8694 35.2075 55.8694 34.0991C55.8694 33.5706 55.9597 33.0422 56.1401 32.5137L60.22 21.0875H56.7395C56.7911 21.4484 56.8169 21.7513 56.8169 21.9962C56.8169 23.2722 56.3141 24.3613 55.3087 25.2636C54.3161 26.1658 53.1109 26.6169 51.6929 26.6169C50.275 26.6169 49.0632 26.1658 48.0578 25.2636C47.0523 24.3613 46.5496 23.2722 46.5496 21.9962C46.5496 20.6557 47.0781 19.5344 48.1351 18.6321C49.1406 17.7814 50.3136 17.3561 51.6542 17.3561H64.2225C65.1119 17.3561 65.8338 17.6203 66.3881 18.1488C66.9423 18.6643 67.2195 19.3668 67.2195 20.2562C67.2195 20.7588 67.1293 21.2679 66.9488 21.7835L62.8303 33.3451L74.1997 18.7868C74.4962 18.4001 74.9731 18.065 75.6305 17.7814C76.288 17.4979 76.868 17.3561 77.3708 17.3561C100.361 17.3561 77.3708 17.3561 100.361 17.3561V17.3561ZM46.4994 14.6616L38.521 16.7616L40.6914 8.80287L46.4994 14.6616ZM29.9102 43.0638L22.8341 30.2229C27.1216 30.2229 30.7878 27.7243 32.3758 23.9874H38.7838C37.7493 28.0047 35.2283 31.442 31.8455 33.6492L35.1916 39.7232C35.4308 40.1553 35.888 40.4401 36.417 40.44H43.5406C43.5406 42.7059 41.7093 44.5639 39.443 44.5639C37.1768 44.5639 32.486 44.5639 32.486 44.5639C31.3761 44.5639 30.414 43.9694 29.9102 43.0637V43.0638ZM6.98849 42.9675V23.9766H13.4297V44.5676H8.59314C7.69312 44.5676 6.98771 43.8672 6.98771 42.9674L6.98849 42.9675ZM22.8481 3.44764C16.0856 3.45403 10.0199 7.60842 7.57051 13.911H38.1569C35.7054 7.60311 29.6318 3.44763 22.8637 3.44764H22.8481ZM39.4042 22.0788C42.3598 22.0788 44.9744 20.1633 45.8652 17.3455C0 17.3455 45.8652 17.3455 0 17.3455C0.885211 20.1721 3.50413 22.0962 6.46651 22.0962L39.4042 22.0788Z" fill="#FF5500"/>
</g>
<defs>
<clipPath id="clip0_367_2521">
<rect width="224.69" height="48"/>
</clipPath>
</defs>
</svg>
