<svg viewBox="0 0 346 346" xmlns="http://www.w3.org/2000/svg">
<path fill-rule="evenodd" clip-rule="evenodd" d="M24.8857 258.514C54.4545 309.618 109.712 344 173.001 344C236.289 344 291.547 309.618 321.116 258.514L296.314 244.195C308.812 222.549 315.391 197.994 315.391 173C315.391 148.005 308.812 123.451 296.314 101.805C283.817 80.1591 265.842 62.1842 244.196 49.6869C222.55 37.1896 197.996 30.6104 173.001 30.6104C148.007 30.6104 123.453 37.1896 101.807 49.6869C80.1608 62.1842 62.1859 80.1591 49.6886 101.805C37.1913 123.451 30.612 148.005 30.612 173C30.612 197.994 37.1913 222.549 49.6886 244.195L24.8857 258.514Z" class="reactionmeter_bg_color_bg" />
<path fill-rule="evenodd" clip-rule="evenodd" d="M172.998 18C172.666 18 172.334 18.001 172.003 18.0031V2H173.997V18.0032C173.664 18.0011 173.331 18 172.998 18ZM200.902 20.504C200.248 20.3852 199.593 20.2706 198.937 20.1601L201.712 4.42488L203.676 4.77118L200.902 20.504ZM226.964 27.6496C226.342 27.4183 225.717 27.191 225.09 26.9676L230.548 11.9715L232.422 12.6535L226.964 27.6496ZM251.378 39.241C250.805 38.9045 250.229 38.5717 249.651 38.2424L257.637 24.4117L259.364 25.4089L251.378 39.241ZM273.402 54.8974C272.896 54.4667 272.387 54.0392 271.875 53.6149L282.153 41.3659L283.681 42.6478L273.402 54.8974ZM292.388 74.1243C291.963 73.6126 291.536 73.1036 291.105 72.5974L303.353 62.3201L304.635 63.8478L292.388 74.1243ZM307.763 96.3461C307.434 95.7684 307.101 95.193 306.764 94.6199L320.591 86.637L321.589 88.364L307.763 96.3461ZM319.039 120.908C318.815 120.281 318.588 119.657 318.357 119.034L333.346 113.578L334.028 115.452L319.039 120.908ZM325.842 147.063C325.732 146.407 325.617 145.752 325.499 145.098L341.229 142.325L341.575 144.289L325.842 147.063ZM327.993 172.931V172.916L344.006 173.011L343.994 175.005L327.981 174.911C327.989 174.252 327.993 173.592 327.993 172.931ZM325.474 200.898C325.593 200.245 325.708 199.59 325.819 198.934L341.575 201.712L341.229 203.676L325.474 200.898ZM318.311 226.95C318.543 226.328 318.771 225.703 318.995 225.077L334.028 230.549L333.346 232.422L318.311 226.95ZM306.704 251.346C307.041 250.773 307.374 250.198 307.704 249.62L321.589 257.637L320.592 259.364L306.704 251.346ZM38.2932 249.622C38.623 250.199 38.9563 250.774 39.2932 251.347L25.4079 259.364L24.4108 257.637L38.2932 249.622ZM27.0016 225.078C27.2255 225.705 27.4533 226.329 27.6851 226.952L12.6535 232.423L11.9715 230.549L27.0016 225.078ZM20.1767 198.935C20.2876 199.591 20.4027 200.246 20.5218 200.899L4.77072 203.676L4.42442 201.712L20.1767 198.935ZM18.003 172.931C18.003 173.592 18.0071 174.252 18.0154 174.911L2.00589 175.005L1.99414 173.011L18.003 172.916V172.931ZM20.4973 145.098C20.3787 145.751 20.2643 146.406 20.1539 147.062L4.42442 144.289L4.77071 142.325L20.4973 145.098ZM27.6398 119.032C27.4086 119.655 27.1813 120.28 26.9579 120.906L11.9715 115.452L12.6535 113.578L27.6398 119.032ZM24.4112 88.364L38.2338 96.3444C38.5631 95.7667 38.896 95.1913 39.2325 94.6183L25.4084 86.637L24.4112 88.364ZM145.098 20.5033C145.752 20.3845 146.406 20.2699 147.063 20.1594L144.288 4.42488L142.324 4.77118L145.098 20.5033ZM115.452 11.9715L120.909 26.9663C120.283 27.1897 119.658 27.417 119.035 27.6482L113.578 12.6535L115.452 11.9715ZM88.3635 24.4112L96.3479 38.2406C95.7702 38.5698 95.1947 38.9026 94.6217 39.239L86.6365 25.4083L88.3635 24.4112ZM63.8473 41.3658L74.1238 53.6128C73.6119 54.037 73.1028 54.4645 72.5966 54.8952L62.3196 42.6476L63.8473 41.3658ZM42.6472 62.3196L54.893 72.5951C54.4622 73.1012 54.0346 73.6102 53.6103 74.122L41.3653 63.8473L42.6472 62.3196Z" class="reactionmeter_bg_color_bar"/>
</svg>
