<svg viewBox="0 0 975 512" xmlns="http://www.w3.org/2000/svg">
<path fill-rule="evenodd" clip-rule="evenodd" d="M685.009 161.518C706.742 175.633 734.225 177.668 759.345 171.298C772.989 167.838 787.28 166 802 166C897.545 166 975 243.455 975 339C975 377.093 962.689 412.31 941.828 440.889C929.969 457.136 917.096 473.348 904.096 489.72C898.23 497.108 892.338 504.529 886.501 512H88.1973C82.2094 504.28 76.1593 496.614 70.1367 488.983C57.3253 472.75 44.6382 456.674 32.9379 440.567C12.2192 412.045 0 376.95 0 339C0 243.455 77.4547 166 173 166C187.62 166 201.816 167.813 215.376 171.228C240.297 177.503 267.53 175.447 289.085 161.456C305.665 150.695 317.308 133.75 323.919 115.122C347.728 48.0398 411.754 0 487 0C562.207 0 626.205 47.9892 650.044 115.016C656.691 133.706 668.374 150.712 685.009 161.518Z" class="reactionmeters_bg_color_main" />
</svg>
