<svg viewBox="0 0 14 70" xmlns="http://www.w3.org/2000/svg">
<path d="M13.9119 64.2533C13.9119 61.1753 12.0579 59.3573 9.87989 59.3573C7.95389 59.3573 6.92789 60.4193 6.26189 62.0393L5.52389 63.7853C5.07389 64.9193 4.73189 65.8553 3.77789 65.8553C2.89589 65.8553 2.37389 65.1173 2.37389 63.9473C2.37389 62.8493 2.76989 61.9673 3.47189 61.1213L1.79789 59.7713C0.69989 60.8513 0.0878906 62.3993 0.0878906 63.9473C0.0878906 66.6473 1.76189 68.5553 3.93989 68.5553C5.88389 68.5553 6.96389 67.2053 7.52189 65.8553L8.27789 64.0733C8.78189 62.8853 9.08789 62.0753 10.0779 62.0753C11.0139 62.0753 11.6079 62.8133 11.6079 64.1993C11.6079 65.3693 11.0139 66.6293 10.1319 67.5833L11.9679 69.1133C13.2099 67.8173 13.9119 66.0353 13.9119 64.2533Z" />
<path d="M13.9119 51.8869C13.9119 48.6289 12.0939 46.7389 7.66589 46.7389H0.32189L0.32189 49.2949H7.89989C10.6719 49.2949 11.6079 50.3029 11.6079 51.8869C11.6079 53.4349 10.6719 54.4069 7.89989 54.4069H0.32189L0.32189 57.0709H7.66589C12.0939 57.0709 13.9119 55.1269 13.9119 51.8869Z" />
<path d="M13.6599 43.534V38.782C13.6599 35.848 12.4179 33.616 9.73589 33.616C7.93589 33.616 6.92789 34.678 6.58589 36.118H6.49589C6.09989 34.984 4.83989 34.3 3.61589 34.3C1.13189 34.3 0.32189 36.388 0.32189 39.124L0.32189 43.534H13.6599ZM5.75789 40.87H2.37389V39.286C2.37389 37.684 2.84189 36.892 4.01189 36.892C5.07389 36.892 5.75789 37.63 5.75789 39.322V40.87ZM11.6079 40.87H7.71989V39.016C7.71989 37.18 8.27789 36.208 9.57389 36.208C10.9599 36.208 11.6079 37.198 11.6079 39.016V40.87Z" />
<path d="M13.6599 31.2821V28.8881H8.09789C6.83789 28.8881 4.98389 29.1041 3.72389 29.2301L3.72389 29.1581L6.85589 28.0961L12.4539 26.0261L12.4539 24.4961L6.85589 22.4441L3.72389 21.3641V21.2741C4.98389 21.4181 6.83789 21.6161 8.09789 21.6161H13.6599V19.1861H0.32189L0.32189 22.1381L6.56789 24.3521C7.39589 24.6401 8.27789 24.8741 9.12389 25.1621V25.2521C8.27789 25.5221 7.39589 25.7741 6.56789 26.0621L0.32189 28.3301L0.32189 31.2821H13.6599Z" />
<path d="M13.6599 15.9188V13.2548H0.32189L0.32189 15.9188H13.6599Z" />
<path d="M13.6599 7.33138V4.66737H2.55389V0.887375H0.32189L0.32189 11.0754H2.55389L2.55389 7.33138H13.6599Z" />
</svg>
