<svg viewBox="0 0 15 69" xmlns="http://www.w3.org/2000/svg">
<path d="M14.252 63.384C14.252 60.306 12.398 58.488 10.22 58.488C8.294 58.488 7.268 59.55 6.602 61.17L5.864 62.916C5.414 64.05 5.072 64.986 4.118 64.986C3.236 64.986 2.714 64.248 2.714 63.078C2.714 61.98 3.11 61.098 3.812 60.252L2.138 58.902C1.04 59.982 0.428 61.53 0.428 63.078C0.428 65.778 2.102 67.686 4.28 67.686C6.224 67.686 7.304 66.336 7.862 64.986L8.618 63.204C9.122 62.016 9.428 61.206 10.418 61.206C11.354 61.206 11.948 61.944 11.948 63.33C11.948 64.5 11.354 65.76 10.472 66.714L12.308 68.244C13.55 66.948 14.252 65.166 14.252 63.384ZM14.252 51.0176C14.252 47.7596 12.434 45.8696 8.006 45.8696H0.661999L0.661999 48.4256H8.24C11.012 48.4256 11.948 49.4336 11.948 51.0176C11.948 52.5656 11.012 53.5376 8.24 53.5376H0.661999V56.2016H8.006C12.434 56.2016 14.252 54.2576 14.252 51.0176ZM14 42.6647L14 37.9127C14 34.9787 12.758 32.7467 10.076 32.7467C8.276 32.7467 7.268 33.8087 6.926 35.2487H6.836C6.44 34.1147 5.18 33.4307 3.956 33.4307C1.472 33.4307 0.661999 35.5187 0.661999 38.2547V42.6647H14ZM6.098 40.0007H2.714V38.4167C2.714 36.8147 3.182 36.0227 4.352 36.0227C5.414 36.0227 6.098 36.7607 6.098 38.4527V40.0007ZM11.948 40.0007H8.06V38.1467C8.06 36.3107 8.618 35.3387 9.914 35.3387C11.3 35.3387 11.948 36.3287 11.948 38.1467L11.948 40.0007ZM14 30.4128V28.0188H8.438C7.178 28.0188 5.324 28.2348 4.064 28.3608V28.2888L7.196 27.2268L12.794 25.1568V23.6268L7.196 21.5748L4.064 20.4948V20.4048C5.324 20.5488 7.178 20.7468 8.438 20.7468H14V18.3168H0.661999V21.2688L6.908 23.4828C7.736 23.7708 8.618 24.0048 9.464 24.2928V24.3828C8.618 24.6528 7.736 24.9048 6.908 25.1928L0.661999 27.4608V30.4128H14ZM14 15.0495V12.3855H0.661999V15.0495H14ZM14 6.46209V3.79809H2.894V0.0180935H0.661999L0.661999 10.2061H2.894V6.46209H14Z" />
</svg>
